<svg width="31" height="31" viewBox="0 0 31 31" fill="none" xmlns="http://www.w3.org/2000/svg">
<g clip-path="url(#clip0_19_15)">
<path d="M30.2917 26.8647L23.0442 19.6172C24.6923 17.1705 25.5055 14.1135 25.0701 10.8561C24.3278 5.31542 19.7868 0.806494 14.2407 0.104332C5.99483 -0.939072 -0.938999 5.99475 0.104465 14.2406C0.806809 19.7891 5.31634 24.3338 10.8576 25.0725C14.115 25.5077 17.1726 24.6949 19.6187 23.0466L26.8662 30.294C27.8119 31.2398 29.3456 31.2398 30.2913 30.294C31.2362 29.3471 31.2362 27.8092 30.2917 26.8647ZM4.78934 12.5938C4.78934 8.32036 8.26594 4.84376 12.5393 4.84376C16.8127 4.84376 20.2893 8.32036 20.2893 12.5938C20.2893 16.8672 16.8127 20.3438 12.5393 20.3438C8.26594 20.3438 4.78934 16.8684 4.78934 12.5938Z" fill="#999999"/>
</g>
<defs>
<clipPath id="clip0_19_15">
<rect width="31" height="31" fill="white"/>
</clipPath>
</defs>
</svg>
